<?xml version="1.0" encoding="UTF-8" standalone="no"?>
<!DOCTYPE svg PUBLIC "-//W3C//DTD SVG 1.1//EN"
 "http://www.w3.org/Graphics/SVG/1.1/DTD/svg11.dtd">
<!-- Generated by graphviz version 2.43.0 (0)
 -->
<!-- Title: OpenCAX::OccIO Pages: 1 -->
<svg width="97pt" height="147pt"
 viewBox="0.00 0.00 97.00 147.00" xmlns="http://www.w3.org/2000/svg" xmlns:xlink="http://www.w3.org/1999/xlink">
<g id="graph0" class="graph" transform="scale(1 1) rotate(0) translate(4 143)">
<title>OpenCAX::OccIO</title>
<!-- Node1 -->
<g id="Node000001" class="node">
<title>Node1</title>
<g id="a_Node000001"><a xlink:title=" ">
<polygon fill="#999999" stroke="transparent" points="89,-139 0,-139 0,0 89,0 89,-139"/>
<text text-anchor="start" x="5.5" y="-126.5" font-family="Helvetica,sans-Serif" font-size="10.00">OpenCAX::OccIO</text>
<text text-anchor="start" x="43" y="-111.5" font-family="Helvetica,sans-Serif" font-size="10.00"> </text>
<text text-anchor="start" x="8" y="-96.5" font-family="Helvetica,sans-Serif" font-size="10.00">+</text>
<text text-anchor="start" x="22.5" y="-96.5" font-family="Helvetica,sans-Serif" font-size="10.00">readSTEP()</text>
<text text-anchor="start" x="8" y="-81.5" font-family="Helvetica,sans-Serif" font-size="10.00">+</text>
<text text-anchor="start" x="22.5" y="-81.5" font-family="Helvetica,sans-Serif" font-size="10.00">readIGES()</text>
<text text-anchor="start" x="8" y="-66.5" font-family="Helvetica,sans-Serif" font-size="10.00">+</text>
<text text-anchor="start" x="22.5" y="-66.5" font-family="Helvetica,sans-Serif" font-size="10.00">readBREP()</text>
<text text-anchor="start" x="8" y="-51.5" font-family="Helvetica,sans-Serif" font-size="10.00">+</text>
<text text-anchor="start" x="22.5" y="-51.5" font-family="Helvetica,sans-Serif" font-size="10.00">readSTL()</text>
<text text-anchor="start" x="8" y="-36.5" font-family="Helvetica,sans-Serif" font-size="10.00">+</text>
<text text-anchor="start" x="22.5" y="-36.5" font-family="Helvetica,sans-Serif" font-size="10.00">writeSTEP()</text>
<text text-anchor="start" x="8" y="-21.5" font-family="Helvetica,sans-Serif" font-size="10.00">+</text>
<text text-anchor="start" x="22.5" y="-21.5" font-family="Helvetica,sans-Serif" font-size="10.00">writeBREP()</text>
<text text-anchor="start" x="8" y="-6.5" font-family="Helvetica,sans-Serif" font-size="10.00">+</text>
<text text-anchor="start" x="22.5" y="-6.5" font-family="Helvetica,sans-Serif" font-size="10.00">writeSTL()</text>
<polygon fill="#666666" stroke="#666666" points="0.5,-121.5 0.5,-121.5 89.5,-121.5 89.5,-121.5 0.5,-121.5"/>
<polygon fill="#666666" stroke="#666666" points="0.5,-106.5 0.5,-106.5 89.5,-106.5 89.5,-106.5 0.5,-106.5"/>
<polygon fill="none" stroke="#666666" points="0,0 0,-139 89,-139 89,0 0,0"/>
</a>
</g>
</g>
</g>
</svg>
