<?xml version="1.0" encoding="UTF-8" standalone="no"?>
<!DOCTYPE svg PUBLIC "-//W3C//DTD SVG 1.1//EN"
 "http://www.w3.org/Graphics/SVG/1.1/DTD/svg11.dtd">
<!-- Generated by graphviz version 2.43.0 (0)
 -->
<!-- Title: OpenCAX::GeometryOps Pages: 1 -->
<svg width="130pt" height="222pt"
 viewBox="0.00 0.00 130.00 222.00" xmlns="http://www.w3.org/2000/svg" xmlns:xlink="http://www.w3.org/1999/xlink">
<g id="graph0" class="graph" transform="scale(1 1) rotate(0) translate(4 218)">
<title>OpenCAX::GeometryOps</title>
<!-- Node1 -->
<g id="Node000001" class="node">
<title>Node1</title>
<g id="a_Node000001"><a xlink:title=" ">
<polygon fill="#999999" stroke="transparent" points="122,-214 0,-214 0,0 122,0 122,-214"/>
<text text-anchor="start" x="5" y="-202" font-family="Helvetica,sans-Serif" font-size="10.00">OpenCAX::GeometryOps</text>
<text text-anchor="start" x="59" y="-187" font-family="Helvetica,sans-Serif" font-size="10.00"> </text>
<text text-anchor="start" x="15.5" y="-172" font-family="Helvetica,sans-Serif" font-size="10.00">+</text>
<text text-anchor="start" x="38" y="-172" font-family="Helvetica,sans-Serif" font-size="10.00">fuse()</text>
<text text-anchor="start" x="15.5" y="-157" font-family="Helvetica,sans-Serif" font-size="10.00">+</text>
<text text-anchor="start" x="38" y="-157" font-family="Helvetica,sans-Serif" font-size="10.00">cut()</text>
<text text-anchor="start" x="15.5" y="-142" font-family="Helvetica,sans-Serif" font-size="10.00">+</text>
<text text-anchor="start" x="38" y="-142" font-family="Helvetica,sans-Serif" font-size="10.00">common()</text>
<text text-anchor="start" x="15.5" y="-127" font-family="Helvetica,sans-Serif" font-size="10.00">+</text>
<text text-anchor="start" x="38" y="-127" font-family="Helvetica,sans-Serif" font-size="10.00">section()</text>
<text text-anchor="start" x="15.5" y="-112" font-family="Helvetica,sans-Serif" font-size="10.00">+</text>
<text text-anchor="start" x="38" y="-112" font-family="Helvetica,sans-Serif" font-size="10.00">translate()</text>
<text text-anchor="start" x="15.5" y="-97" font-family="Helvetica,sans-Serif" font-size="10.00">+</text>
<text text-anchor="start" x="38" y="-97" font-family="Helvetica,sans-Serif" font-size="10.00">rotate()</text>
<text text-anchor="start" x="15.5" y="-82" font-family="Helvetica,sans-Serif" font-size="10.00">+</text>
<text text-anchor="start" x="38" y="-82" font-family="Helvetica,sans-Serif" font-size="10.00">scale()</text>
<text text-anchor="start" x="15.5" y="-67" font-family="Helvetica,sans-Serif" font-size="10.00">+</text>
<text text-anchor="start" x="38" y="-67" font-family="Helvetica,sans-Serif" font-size="10.00">mirrorPoint()</text>
<text text-anchor="start" x="15.5" y="-52" font-family="Helvetica,sans-Serif" font-size="10.00">+</text>
<text text-anchor="start" x="38" y="-52" font-family="Helvetica,sans-Serif" font-size="10.00">mirrorAxis()</text>
<text text-anchor="start" x="15.5" y="-37" font-family="Helvetica,sans-Serif" font-size="10.00">+</text>
<text text-anchor="start" x="38" y="-37" font-family="Helvetica,sans-Serif" font-size="10.00">mirrorPlane()</text>
<text text-anchor="start" x="15.5" y="-22" font-family="Helvetica,sans-Serif" font-size="10.00">+</text>
<text text-anchor="start" x="38" y="-22" font-family="Helvetica,sans-Serif" font-size="10.00">fillet()</text>
<text text-anchor="start" x="15.5" y="-7" font-family="Helvetica,sans-Serif" font-size="10.00">+</text>
<text text-anchor="start" x="38" y="-7" font-family="Helvetica,sans-Serif" font-size="10.00">chamfer()</text>
<polygon fill="#666666" stroke="#666666" points="0,-197 0,-197 122,-197 122,-197 0,-197"/>
<polygon fill="#666666" stroke="#666666" points="0,-182 0,-182 122,-182 122,-182 0,-182"/>
<polygon fill="none" stroke="#666666" points="0,0 0,-214 122,-214 122,0 0,0"/>
</a>
</g>
</g>
</g>
</svg>
