<?xml version="1.0" encoding="UTF-8" standalone="no"?>
<!DOCTYPE svg PUBLIC "-//W3C//DTD SVG 1.1//EN"
 "http://www.w3.org/Graphics/SVG/1.1/DTD/svg11.dtd">
<!-- Generated by graphviz version 2.43.0 (0)
 -->
<!-- Title: /home/xuming/code_ws/OpenCAX/include/OpenCAX/Core/Config.h Pages: 1 -->
<svg width="1708pt" height="280pt"
 viewBox="0.00 0.00 1708.00 280.00" xmlns="http://www.w3.org/2000/svg" xmlns:xlink="http://www.w3.org/1999/xlink">
<g id="graph0" class="graph" transform="scale(1 1) rotate(0) translate(4 276)">
<title>/home/xuming/code_ws/OpenCAX/include/OpenCAX/Core/Config.h</title>
<!-- Node1 -->
<g id="Node000001" class="node">
<title>Node1</title>
<g id="a_Node000001"><a xlink:title=" ">
<polygon fill="#999999" stroke="#666666" points="676,-272 531,-272 531,-231 676,-231 676,-272"/>
<text text-anchor="start" x="539" y="-260" font-family="Helvetica,sans-Serif" font-size="10.00">/home/xuming/code_ws</text>
<text text-anchor="start" x="539" y="-249" font-family="Helvetica,sans-Serif" font-size="10.00">/OpenCAX/include/OpenCAX</text>
<text text-anchor="middle" x="603.5" y="-238" font-family="Helvetica,sans-Serif" font-size="10.00">/Core/Config.h</text>
</a>
</g>
</g>
<!-- Node2 -->
<g id="Node000002" class="node">
<title>Node2</title>
<g id="a_Node000002"><a xlink:href="LogMacros_8h.html" target="_top" xlink:title=" ">
<polygon fill="white" stroke="#666666" points="145,-118 0,-118 0,-77 145,-77 145,-118"/>
<text text-anchor="start" x="8" y="-106" font-family="Helvetica,sans-Serif" font-size="10.00">/home/xuming/code_ws</text>
<text text-anchor="start" x="8" y="-95" font-family="Helvetica,sans-Serif" font-size="10.00">/OpenCAX/include/OpenCAX</text>
<text text-anchor="middle" x="72.5" y="-84" font-family="Helvetica,sans-Serif" font-size="10.00">/Core/LogMacros.h</text>
</a>
</g>
</g>
<!-- Node1&#45;&gt;Node2 -->
<g id="edge1_Node000001_Node000002" class="edge">
<title>Node1&#45;&gt;Node2</title>
<g id="a_edge1_Node000001_Node000002"><a xlink:title=" ">
<path fill="none" stroke="#63b8ff" d="M520.48,-238.74C462.4,-229.48 383.4,-214.83 315.5,-195 243.17,-173.87 162.47,-139.57 114.67,-118.06"/>
<polygon fill="#63b8ff" stroke="#63b8ff" points="520.28,-242.25 530.7,-240.34 521.37,-235.33 520.28,-242.25"/>
</a>
</g>
</g>
<!-- Node3 -->
<g id="Node000003" class="node">
<title>Node3</title>
<g id="a_Node000003"><a xlink:href="Logger_8h.html" target="_top" xlink:title=" ">
<polygon fill="white" stroke="#666666" points="165,-195 20,-195 20,-154 165,-154 165,-195"/>
<text text-anchor="start" x="28" y="-183" font-family="Helvetica,sans-Serif" font-size="10.00">/home/xuming/code_ws</text>
<text text-anchor="start" x="28" y="-172" font-family="Helvetica,sans-Serif" font-size="10.00">/OpenCAX/include/OpenCAX</text>
<text text-anchor="middle" x="92.5" y="-161" font-family="Helvetica,sans-Serif" font-size="10.00">/Core/Logger.h</text>
</a>
</g>
</g>
<!-- Node1&#45;&gt;Node3 -->
<g id="edge2_Node000001_Node000003" class="edge">
<title>Node1&#45;&gt;Node3</title>
<g id="a_edge2_Node000001_Node000003"><a xlink:title=" ">
<path fill="none" stroke="#63b8ff" d="M520.91,-238.38C422.42,-223.92 259.32,-199.98 165.33,-186.19"/>
<polygon fill="#63b8ff" stroke="#63b8ff" points="520.43,-241.84 530.83,-239.83 521.44,-234.92 520.43,-241.84"/>
</a>
</g>
</g>
<!-- Node4 -->
<g id="Node000004" class="node">
<title>Node4</title>
<g id="a_Node000004"><a xlink:href="GeometryAnalysis_8h.html" target="_top" xlink:title=" ">
<polygon fill="white" stroke="#666666" points="681.5,-118 527.5,-118 527.5,-77 681.5,-77 681.5,-118"/>
<text text-anchor="start" x="535.5" y="-106" font-family="Helvetica,sans-Serif" font-size="10.00">/home/xuming/code_ws</text>
<text text-anchor="start" x="535.5" y="-95" font-family="Helvetica,sans-Serif" font-size="10.00">/OpenCAX/include/OpenCAX</text>
<text text-anchor="middle" x="604.5" y="-84" font-family="Helvetica,sans-Serif" font-size="10.00">/Geometry/GeometryAnalysis.h</text>
</a>
</g>
</g>
<!-- Node1&#45;&gt;Node4 -->
<g id="edge4_Node000001_Node000004" class="edge">
<title>Node1&#45;&gt;Node4</title>
<g id="a_edge4_Node000001_Node000004"><a xlink:title=" ">
<path fill="none" stroke="#63b8ff" d="M603.7,-220.58C603.9,-190.36 604.2,-144.53 604.37,-118.47"/>
<polygon fill="#63b8ff" stroke="#63b8ff" points="600.19,-220.92 603.63,-230.94 607.19,-220.96 600.19,-220.92"/>
</a>
</g>
</g>
<!-- Node6 -->
<g id="Node000006" class="node">
<title>Node6</title>
<g id="a_Node000006"><a xlink:href="GeometryBuilder_8h.html" target="_top" xlink:title=" ">
<polygon fill="white" stroke="#666666" points="845.5,-118 699.5,-118 699.5,-77 845.5,-77 845.5,-118"/>
<text text-anchor="start" x="707.5" y="-106" font-family="Helvetica,sans-Serif" font-size="10.00">/home/xuming/code_ws</text>
<text text-anchor="start" x="707.5" y="-95" font-family="Helvetica,sans-Serif" font-size="10.00">/OpenCAX/include/OpenCAX</text>
<text text-anchor="middle" x="772.5" y="-84" font-family="Helvetica,sans-Serif" font-size="10.00">/Geometry/GeometryBuilder.h</text>
</a>
</g>
</g>
<!-- Node1&#45;&gt;Node6 -->
<g id="edge6_Node000001_Node000006" class="edge">
<title>Node1&#45;&gt;Node6</title>
<g id="a_edge6_Node000001_Node000006"><a xlink:title=" ">
<path fill="none" stroke="#63b8ff" d="M615.21,-221.52C624.84,-200.61 640.2,-172.87 660.5,-154 676.8,-138.86 698,-126.95 717.56,-118.1"/>
<polygon fill="#63b8ff" stroke="#63b8ff" points="611.92,-220.31 611.07,-230.87 618.32,-223.14 611.92,-220.31"/>
</a>
</g>
</g>
<!-- Node7 -->
<g id="Node000007" class="node">
<title>Node7</title>
<g id="a_Node000007"><a xlink:href="GeometryIO_8h.html" target="_top" xlink:title=" ">
<polygon fill="white" stroke="#666666" points="308,-118 163,-118 163,-77 308,-77 308,-118"/>
<text text-anchor="start" x="171" y="-106" font-family="Helvetica,sans-Serif" font-size="10.00">/home/xuming/code_ws</text>
<text text-anchor="start" x="171" y="-95" font-family="Helvetica,sans-Serif" font-size="10.00">/OpenCAX/include/OpenCAX</text>
<text text-anchor="middle" x="235.5" y="-84" font-family="Helvetica,sans-Serif" font-size="10.00">/Geometry/GeometryIO.h</text>
</a>
</g>
</g>
<!-- Node1&#45;&gt;Node7 -->
<g id="edge8_Node000001_Node000007" class="edge">
<title>Node1&#45;&gt;Node7</title>
<g id="a_edge8_Node000001_Node000007"><a xlink:title=" ">
<path fill="none" stroke="#63b8ff" d="M520.8,-233.89C482.2,-224.74 436.12,-211.8 396.5,-195 346.69,-173.89 293.78,-139.58 262.74,-118.07"/>
<polygon fill="#63b8ff" stroke="#63b8ff" points="520.43,-237.4 530.97,-236.26 522.02,-230.58 520.43,-237.4"/>
</a>
</g>
</g>
<!-- Node8 -->
<g id="Node000008" class="node">
<title>Node8</title>
<g id="a_Node000008"><a xlink:href="GeometryOps_8h.html" target="_top" xlink:title=" ">
<polygon fill="white" stroke="#666666" points="471,-118 326,-118 326,-77 471,-77 471,-118"/>
<text text-anchor="start" x="334" y="-106" font-family="Helvetica,sans-Serif" font-size="10.00">/home/xuming/code_ws</text>
<text text-anchor="start" x="334" y="-95" font-family="Helvetica,sans-Serif" font-size="10.00">/OpenCAX/include/OpenCAX</text>
<text text-anchor="middle" x="398.5" y="-84" font-family="Helvetica,sans-Serif" font-size="10.00">/Geometry/GeometryOps.h</text>
</a>
</g>
</g>
<!-- Node1&#45;&gt;Node8 -->
<g id="edge10_Node000001_Node000008" class="edge">
<title>Node1&#45;&gt;Node8</title>
<g id="a_edge10_Node000001_Node000008"><a xlink:title=" ">
<path fill="none" stroke="#63b8ff" d="M520.83,-244.44C484.65,-237.56 444.59,-223.47 418.5,-195 399.31,-174.06 396.6,-139.7 397.06,-118.13"/>
<polygon fill="#63b8ff" stroke="#63b8ff" points="520.46,-247.93 530.92,-246.2 521.67,-241.03 520.46,-247.93"/>
</a>
</g>
</g>
<!-- Node9 -->
<g id="Node000009" class="node">
<title>Node9</title>
<g id="a_Node000009"><a xlink:href="Shape_8h.html" target="_top" xlink:title=" ">
<polygon fill="white" stroke="#666666" points="573,-195 428,-195 428,-154 573,-154 573,-195"/>
<text text-anchor="start" x="436" y="-183" font-family="Helvetica,sans-Serif" font-size="10.00">/home/xuming/code_ws</text>
<text text-anchor="start" x="436" y="-172" font-family="Helvetica,sans-Serif" font-size="10.00">/OpenCAX/include/OpenCAX</text>
<text text-anchor="middle" x="500.5" y="-161" font-family="Helvetica,sans-Serif" font-size="10.00">/Geometry/Shape.h</text>
</a>
</g>
</g>
<!-- Node1&#45;&gt;Node9 -->
<g id="edge12_Node000001_Node000009" class="edge">
<title>Node1&#45;&gt;Node9</title>
<g id="a_edge12_Node000001_Node000009"><a xlink:title=" ">
<path fill="none" stroke="#63b8ff" d="M568.61,-225.09C555.19,-215.32 540.08,-204.32 527.52,-195.17"/>
<polygon fill="#63b8ff" stroke="#63b8ff" points="566.56,-227.93 576.71,-230.99 570.68,-222.27 566.56,-227.93"/>
</a>
</g>
</g>
<!-- Node10 -->
<g id="Node000010" class="node">
<title>Node10</title>
<g id="a_Node000010"><a xlink:href="VtkIO_8h.html" target="_top" xlink:title=" ">
<polygon fill="white" stroke="#666666" points="815,-195 670,-195 670,-154 815,-154 815,-195"/>
<text text-anchor="start" x="678" y="-183" font-family="Helvetica,sans-Serif" font-size="10.00">/home/xuming/code_ws</text>
<text text-anchor="start" x="678" y="-172" font-family="Helvetica,sans-Serif" font-size="10.00">/OpenCAX/include/OpenCAX</text>
<text text-anchor="middle" x="742.5" y="-161" font-family="Helvetica,sans-Serif" font-size="10.00">/IO/VtkIO.h</text>
</a>
</g>
</g>
<!-- Node1&#45;&gt;Node10 -->
<g id="edge18_Node000001_Node000010" class="edge">
<title>Node1&#45;&gt;Node10</title>
<g id="a_edge18_Node000001_Node000010"><a xlink:title=" ">
<path fill="none" stroke="#63b8ff" d="M648.55,-226.19C667.15,-216.15 688.44,-204.67 706.04,-195.17"/>
<polygon fill="#63b8ff" stroke="#63b8ff" points="646.8,-223.16 639.66,-230.99 650.12,-229.32 646.8,-223.16"/>
</a>
</g>
</g>
<!-- Node11 -->
<g id="Node000011" class="node">
<title>Node11</title>
<g id="a_Node000011"><a xlink:href="Mesh_8h.html" target="_top" xlink:title=" ">
<polygon fill="white" stroke="#666666" points="1273,-195 1128,-195 1128,-154 1273,-154 1273,-195"/>
<text text-anchor="start" x="1136" y="-183" font-family="Helvetica,sans-Serif" font-size="10.00">/home/xuming/code_ws</text>
<text text-anchor="start" x="1136" y="-172" font-family="Helvetica,sans-Serif" font-size="10.00">/OpenCAX/include/OpenCAX</text>
<text text-anchor="middle" x="1200.5" y="-161" font-family="Helvetica,sans-Serif" font-size="10.00">/Mesh/Mesh.h</text>
</a>
</g>
</g>
<!-- Node1&#45;&gt;Node11 -->
<g id="edge19_Node000001_Node000011" class="edge">
<title>Node1&#45;&gt;Node11</title>
<g id="a_edge19_Node000001_Node000011"><a xlink:title=" ">
<path fill="none" stroke="#63b8ff" d="M686.12,-240.12C803.43,-225.38 1016.39,-198.63 1127.93,-184.62"/>
<polygon fill="#63b8ff" stroke="#63b8ff" points="685.59,-236.66 676.11,-241.38 686.47,-243.6 685.59,-236.66"/>
</a>
</g>
</g>
<!-- Node14 -->
<g id="Node000014" class="node">
<title>Node14</title>
<g id="a_Node000014"><a xlink:href="MeshTopology_8h.html" target="_top" xlink:title=" ">
<polygon fill="white" stroke="#666666" points="1009,-118 864,-118 864,-77 1009,-77 1009,-118"/>
<text text-anchor="start" x="872" y="-106" font-family="Helvetica,sans-Serif" font-size="10.00">/home/xuming/code_ws</text>
<text text-anchor="start" x="872" y="-95" font-family="Helvetica,sans-Serif" font-size="10.00">/OpenCAX/include/OpenCAX</text>
<text text-anchor="middle" x="936.5" y="-84" font-family="Helvetica,sans-Serif" font-size="10.00">/Mesh/MeshTopology.h</text>
</a>
</g>
</g>
<!-- Node1&#45;&gt;Node14 -->
<g id="edge28_Node000001_Node000014" class="edge">
<title>Node1&#45;&gt;Node14</title>
<g id="a_edge28_Node000001_Node000014"><a xlink:title=" ">
<path fill="none" stroke="#63b8ff" d="M686.17,-238.93C728.86,-230.69 780.82,-217.06 823.5,-195 861.77,-175.22 898.2,-140.18 918.9,-118.21"/>
<polygon fill="#63b8ff" stroke="#63b8ff" points="685.27,-235.53 676.08,-240.81 686.56,-242.42 685.27,-235.53"/>
</a>
</g>
</g>
<!-- Node15 -->
<g id="Node000015" class="node">
<title>Node15</title>
<g id="a_Node000015"><a xlink:href="TriangleMesh_8h.html" target="_top" xlink:title=" ">
<polygon fill="white" stroke="#666666" points="1700,-118 1555,-118 1555,-77 1700,-77 1700,-118"/>
<text text-anchor="start" x="1563" y="-106" font-family="Helvetica,sans-Serif" font-size="10.00">/home/xuming/code_ws</text>
<text text-anchor="start" x="1563" y="-95" font-family="Helvetica,sans-Serif" font-size="10.00">/OpenCAX/include/OpenCAX</text>
<text text-anchor="middle" x="1627.5" y="-84" font-family="Helvetica,sans-Serif" font-size="10.00">/Mesh/TriangleMesh.h</text>
</a>
</g>
</g>
<!-- Node1&#45;&gt;Node15 -->
<g id="edge29_Node000001_Node000015" class="edge">
<title>Node1&#45;&gt;Node15</title>
<g id="a_edge29_Node000001_Node000015"><a xlink:title=" ">
<path fill="none" stroke="#63b8ff" d="M686.61,-248.81C815.26,-245.06 1069.96,-233.05 1282.5,-195 1385.81,-176.5 1502.83,-140.46 1570.59,-118.04"/>
<polygon fill="#63b8ff" stroke="#63b8ff" points="686.34,-245.32 676.44,-249.1 686.53,-252.32 686.34,-245.32"/>
</a>
</g>
</g>
<!-- Node3&#45;&gt;Node2 -->
<g id="edge3_Node000003_Node000002" class="edge">
<title>Node3&#45;&gt;Node2</title>
<g id="a_edge3_Node000003_Node000002"><a xlink:title=" ">
<path fill="none" stroke="#63b8ff" d="M84.63,-143.98C82.31,-135.28 79.83,-125.98 77.72,-118.07"/>
<polygon fill="#63b8ff" stroke="#63b8ff" points="81.29,-145.03 87.25,-153.79 88.05,-143.23 81.29,-145.03"/>
</a>
</g>
</g>
<!-- Node5 -->
<g id="Node000005" class="node">
<title>Node5</title>
<g id="a_Node000005"><a xlink:href="GeometryModule_8h.html" target="_top" xlink:title=" ">
<polygon fill="white" stroke="#666666" points="573.5,-41 425.5,-41 425.5,0 573.5,0 573.5,-41"/>
<text text-anchor="start" x="433.5" y="-29" font-family="Helvetica,sans-Serif" font-size="10.00">/home/xuming/code_ws</text>
<text text-anchor="start" x="433.5" y="-18" font-family="Helvetica,sans-Serif" font-size="10.00">/OpenCAX/include/OpenCAX</text>
<text text-anchor="middle" x="499.5" y="-7" font-family="Helvetica,sans-Serif" font-size="10.00">/Geometry/GeometryModule.h</text>
</a>
</g>
</g>
<!-- Node4&#45;&gt;Node5 -->
<g id="edge5_Node000004_Node000005" class="edge">
<title>Node4&#45;&gt;Node5</title>
<g id="a_edge5_Node000004_Node000005"><a xlink:title=" ">
<path fill="none" stroke="#63b8ff" d="M568.93,-71.09C555.25,-61.32 539.85,-50.32 527.04,-41.17"/>
<polygon fill="#63b8ff" stroke="#63b8ff" points="567.01,-74.03 577.19,-76.99 571.08,-68.33 567.01,-74.03"/>
</a>
</g>
</g>
<!-- Node6&#45;&gt;Node5 -->
<g id="edge7_Node000006_Node000005" class="edge">
<title>Node6&#45;&gt;Node5</title>
<g id="a_edge7_Node000006_Node000005"><a xlink:title=" ">
<path fill="none" stroke="#63b8ff" d="M691.38,-74.21C653.02,-63.68 607.63,-51.21 570.63,-41.04"/>
<polygon fill="#63b8ff" stroke="#63b8ff" points="690.92,-77.72 701.49,-76.99 692.77,-70.97 690.92,-77.72"/>
</a>
</g>
</g>
<!-- Node7&#45;&gt;Node5 -->
<g id="edge9_Node000007_Node000005" class="edge">
<title>Node7&#45;&gt;Node5</title>
<g id="a_edge9_Node000007_Node000005"><a xlink:title=" ">
<path fill="none" stroke="#63b8ff" d="M313.95,-74.21C351.04,-63.68 394.93,-51.21 430.71,-41.04"/>
<polygon fill="#63b8ff" stroke="#63b8ff" points="312.84,-70.89 304.17,-76.99 314.75,-77.62 312.84,-70.89"/>
</a>
</g>
</g>
<!-- Node8&#45;&gt;Node5 -->
<g id="edge11_Node000008_Node000005" class="edge">
<title>Node8&#45;&gt;Node5</title>
<g id="a_edge11_Node000008_Node000005"><a xlink:title=" ">
<path fill="none" stroke="#63b8ff" d="M433.09,-70.82C446.15,-61.11 460.8,-50.24 473.01,-41.17"/>
<polygon fill="#63b8ff" stroke="#63b8ff" points="430.71,-68.22 424.77,-76.99 434.89,-73.84 430.71,-68.22"/>
</a>
</g>
</g>
<!-- Node9&#45;&gt;Node4 -->
<g id="edge13_Node000009_Node000004" class="edge">
<title>Node9&#45;&gt;Node4</title>
<g id="a_edge13_Node000009_Node000004"><a xlink:title=" ">
<path fill="none" stroke="#63b8ff" d="M535.73,-148.09C549.28,-138.32 564.53,-127.32 577.22,-118.17"/>
<polygon fill="#63b8ff" stroke="#63b8ff" points="533.62,-145.3 527.55,-153.99 537.71,-150.98 533.62,-145.3"/>
</a>
</g>
</g>
<!-- Node9&#45;&gt;Node5 -->
<g id="edge16_Node000009_Node000005" class="edge">
<title>Node9&#45;&gt;Node5</title>
<g id="a_edge16_Node000009_Node000005"><a xlink:title=" ">
<path fill="none" stroke="#63b8ff" d="M500.3,-143.58C500.1,-113.36 499.8,-67.53 499.63,-41.47"/>
<polygon fill="#63b8ff" stroke="#63b8ff" points="496.81,-143.96 500.37,-153.94 503.81,-143.92 496.81,-143.96"/>
</a>
</g>
</g>
<!-- Node9&#45;&gt;Node6 -->
<g id="edge14_Node000009_Node000006" class="edge">
<title>Node9&#45;&gt;Node6</title>
<g id="a_edge14_Node000009_Node000006"><a xlink:title=" ">
<path fill="none" stroke="#63b8ff" d="M581.32,-151.21C619.54,-140.68 664.76,-128.21 701.63,-118.04"/>
<polygon fill="#63b8ff" stroke="#63b8ff" points="579.96,-147.96 571.25,-153.99 581.83,-154.71 579.96,-147.96"/>
</a>
</g>
</g>
<!-- Node9&#45;&gt;Node7 -->
<g id="edge15_Node000009_Node000007" class="edge">
<title>Node9&#45;&gt;Node7</title>
<g id="a_edge15_Node000009_Node000007"><a xlink:title=" ">
<path fill="none" stroke="#63b8ff" d="M421.76,-151.21C384.52,-140.68 340.46,-128.21 304.55,-118.04"/>
<polygon fill="#63b8ff" stroke="#63b8ff" points="420.99,-154.63 431.57,-153.99 422.9,-147.9 420.99,-154.63"/>
</a>
</g>
</g>
<!-- Node9&#45;&gt;Node8 -->
<g id="edge17_Node000009_Node000008" class="edge">
<title>Node9&#45;&gt;Node8</title>
<g id="a_edge17_Node000009_Node000008"><a xlink:title=" ">
<path fill="none" stroke="#63b8ff" d="M465.57,-147.82C452.38,-138.11 437.58,-127.24 425.25,-118.17"/>
<polygon fill="#63b8ff" stroke="#63b8ff" points="463.84,-150.89 473.97,-153.99 467.98,-145.25 463.84,-150.89"/>
</a>
</g>
</g>
<!-- Node12 -->
<g id="Node000012" class="node">
<title>Node12</title>
<g id="a_Node000012"><a xlink:href="FEMModel_8h.html" target="_top" xlink:title=" ">
<polygon fill="white" stroke="#666666" points="1172,-118 1027,-118 1027,-77 1172,-77 1172,-118"/>
<text text-anchor="start" x="1035" y="-106" font-family="Helvetica,sans-Serif" font-size="10.00">/home/xuming/code_ws</text>
<text text-anchor="start" x="1035" y="-95" font-family="Helvetica,sans-Serif" font-size="10.00">/OpenCAX/include/OpenCAX</text>
<text text-anchor="middle" x="1099.5" y="-84" font-family="Helvetica,sans-Serif" font-size="10.00">/FEM/FEMModel.h</text>
</a>
</g>
</g>
<!-- Node11&#45;&gt;Node12 -->
<g id="edge20_Node000011_Node000012" class="edge">
<title>Node11&#45;&gt;Node12</title>
<g id="a_edge20_Node000011_Node000012"><a xlink:title=" ">
<path fill="none" stroke="#63b8ff" d="M1165.91,-147.82C1152.85,-138.11 1138.2,-127.24 1125.99,-118.17"/>
<polygon fill="#63b8ff" stroke="#63b8ff" points="1164.11,-150.84 1174.23,-153.99 1168.29,-145.22 1164.11,-150.84"/>
</a>
</g>
</g>
<!-- Node13 -->
<g id="Node000013" class="node">
<title>Node13</title>
<g id="a_Node000013"><a xlink:href="MeshModule_8h.html" target="_top" xlink:title=" ">
<polygon fill="white" stroke="#666666" points="1273,-41 1128,-41 1128,0 1273,0 1273,-41"/>
<text text-anchor="start" x="1136" y="-29" font-family="Helvetica,sans-Serif" font-size="10.00">/home/xuming/code_ws</text>
<text text-anchor="start" x="1136" y="-18" font-family="Helvetica,sans-Serif" font-size="10.00">/OpenCAX/include/OpenCAX</text>
<text text-anchor="middle" x="1200.5" y="-7" font-family="Helvetica,sans-Serif" font-size="10.00">/Mesh/MeshModule.h</text>
</a>
</g>
</g>
<!-- Node11&#45;&gt;Node13 -->
<g id="edge21_Node000011_Node000013" class="edge">
<title>Node11&#45;&gt;Node13</title>
<g id="a_edge21_Node000011_Node000013"><a xlink:title=" ">
<path fill="none" stroke="#63b8ff" d="M1200.5,-143.58C1200.5,-113.36 1200.5,-67.53 1200.5,-41.47"/>
<polygon fill="#63b8ff" stroke="#63b8ff" points="1197,-143.94 1200.5,-153.94 1204,-143.94 1197,-143.94"/>
</a>
</g>
</g>
<!-- Node11&#45;&gt;Node14 -->
<g id="edge22_Node000011_Node000014" class="edge">
<title>Node11&#45;&gt;Node14</title>
<g id="a_edge22_Node000011_Node000014"><a xlink:title=" ">
<path fill="none" stroke="#63b8ff" d="M1122.05,-151.21C1084.96,-140.68 1041.07,-128.21 1005.29,-118.04"/>
<polygon fill="#63b8ff" stroke="#63b8ff" points="1121.25,-154.62 1131.83,-153.99 1123.16,-147.89 1121.25,-154.62"/>
</a>
</g>
</g>
<!-- Node11&#45;&gt;Node15 -->
<g id="edge24_Node000011_Node000015" class="edge">
<title>Node11&#45;&gt;Node15</title>
<g id="a_edge24_Node000011_Node000015"><a xlink:title=" ">
<path fill="none" stroke="#63b8ff" d="M1283.15,-162.07C1353.45,-151.92 1456.95,-135.93 1546.5,-118 1549.19,-117.46 1551.94,-116.89 1554.7,-116.31"/>
<polygon fill="#63b8ff" stroke="#63b8ff" points="1282.42,-158.64 1273.02,-163.53 1283.42,-165.57 1282.42,-158.64"/>
</a>
</g>
</g>
<!-- Node16 -->
<g id="Node000016" class="node">
<title>Node16</title>
<g id="a_Node000016"><a xlink:href="VtkConverter_8h.html" target="_top" xlink:title=" ">
<polygon fill="white" stroke="#666666" points="1374,-118 1229,-118 1229,-77 1374,-77 1374,-118"/>
<text text-anchor="start" x="1237" y="-106" font-family="Helvetica,sans-Serif" font-size="10.00">/home/xuming/code_ws</text>
<text text-anchor="start" x="1237" y="-95" font-family="Helvetica,sans-Serif" font-size="10.00">/OpenCAX/include/OpenCAX</text>
<text text-anchor="middle" x="1301.5" y="-84" font-family="Helvetica,sans-Serif" font-size="10.00">/Post/VtkConverter.h</text>
</a>
</g>
</g>
<!-- Node11&#45;&gt;Node16 -->
<g id="edge26_Node000011_Node000016" class="edge">
<title>Node11&#45;&gt;Node16</title>
<g id="a_edge26_Node000011_Node000016"><a xlink:title=" ">
<path fill="none" stroke="#63b8ff" d="M1235.09,-147.82C1248.15,-138.11 1262.8,-127.24 1275.01,-118.17"/>
<polygon fill="#63b8ff" stroke="#63b8ff" points="1232.71,-145.22 1226.77,-153.99 1236.89,-150.84 1232.71,-145.22"/>
</a>
</g>
</g>
<!-- Node17 -->
<g id="Node000017" class="node">
<title>Node17</title>
<g id="a_Node000017"><a xlink:href="VtkViewer_8h.html" target="_top" xlink:title=" ">
<polygon fill="white" stroke="#666666" points="1537,-118 1392,-118 1392,-77 1537,-77 1537,-118"/>
<text text-anchor="start" x="1400" y="-106" font-family="Helvetica,sans-Serif" font-size="10.00">/home/xuming/code_ws</text>
<text text-anchor="start" x="1400" y="-95" font-family="Helvetica,sans-Serif" font-size="10.00">/OpenCAX/include/OpenCAX</text>
<text text-anchor="middle" x="1464.5" y="-84" font-family="Helvetica,sans-Serif" font-size="10.00">/Post/VtkViewer.h</text>
</a>
</g>
</g>
<!-- Node11&#45;&gt;Node17 -->
<g id="edge27_Node000011_Node000017" class="edge">
<title>Node11&#45;&gt;Node17</title>
<g id="a_edge27_Node000011_Node000017"><a xlink:title=" ">
<path fill="none" stroke="#63b8ff" d="M1278.95,-151.21C1316.04,-140.68 1359.93,-128.21 1395.71,-118.04"/>
<polygon fill="#63b8ff" stroke="#63b8ff" points="1277.84,-147.89 1269.17,-153.99 1279.75,-154.62 1277.84,-147.89"/>
</a>
</g>
</g>
<!-- Node14&#45;&gt;Node13 -->
<g id="edge23_Node000014_Node000013" class="edge">
<title>Node14&#45;&gt;Node13</title>
<g id="a_edge23_Node000014_Node000013"><a xlink:title=" ">
<path fill="none" stroke="#63b8ff" d="M1014.95,-74.21C1052.04,-63.68 1095.93,-51.21 1131.71,-41.04"/>
<polygon fill="#63b8ff" stroke="#63b8ff" points="1013.84,-70.89 1005.17,-76.99 1015.75,-77.62 1013.84,-70.89"/>
</a>
</g>
</g>
<!-- Node15&#45;&gt;Node13 -->
<g id="edge25_Node000015_Node000013" class="edge">
<title>Node15&#45;&gt;Node13</title>
<g id="a_edge25_Node000015_Node000013"><a xlink:title=" ">
<path fill="none" stroke="#63b8ff" d="M1544.8,-76.72C1445.54,-57.12 1340.97,-41.19 1273.02,-31.47"/>
<polygon fill="#63b8ff" stroke="#63b8ff" points="1544.21,-80.17 1554.7,-78.69 1545.58,-73.31 1544.21,-80.17"/>
</a>
</g>
</g>
</g>
</svg>
