<?xml version="1.0" encoding="UTF-8" standalone="no"?>
<!DOCTYPE svg PUBLIC "-//W3C//DTD SVG 1.1//EN"
 "http://www.w3.org/Graphics/SVG/1.1/DTD/svg11.dtd">
<!-- Generated by graphviz version 2.43.0 (0)
 -->
<!-- Title: /home/xuming/code_ws/OpenCAX/include/OpenCAX/Core/LogMacros.h Pages: 1 -->
<svg width="446pt" height="159pt"
 viewBox="0.00 0.00 446.00 159.00" xmlns="http://www.w3.org/2000/svg" xmlns:xlink="http://www.w3.org/1999/xlink">
<g id="graph0" class="graph" transform="scale(1 1) rotate(0) translate(4 155)">
<title>/home/xuming/code_ws/OpenCAX/include/OpenCAX/Core/LogMacros.h</title>
<!-- Node1 -->
<g id="Node000001" class="node">
<title>Node1</title>
<g id="a_Node000001"><a xlink:title=" ">
<polygon fill="#999999" stroke="#666666" points="300,-151 155,-151 155,-110 300,-110 300,-151"/>
<text text-anchor="start" x="163" y="-139" font-family="Helvetica,sans-Serif" font-size="10.00">/home/xuming/code_ws</text>
<text text-anchor="start" x="163" y="-128" font-family="Helvetica,sans-Serif" font-size="10.00">/OpenCAX/include/OpenCAX</text>
<text text-anchor="middle" x="227.5" y="-117" font-family="Helvetica,sans-Serif" font-size="10.00">/Core/LogMacros.h</text>
</a>
</g>
</g>
<!-- Node2 -->
<g id="Node000002" class="node">
<title>Node2</title>
<g id="a_Node000002"><a xlink:href="Config_8h.html" target="_top" xlink:title=" ">
<polygon fill="white" stroke="#666666" points="125,-19 0,-19 0,0 125,0 125,-19"/>
<text text-anchor="middle" x="62.5" y="-7" font-family="Helvetica,sans-Serif" font-size="10.00">OpenCAX/Core/Config.h</text>
</a>
</g>
</g>
<!-- Node1&#45;&gt;Node2 -->
<g id="edge1_Node000001_Node000002" class="edge">
<title>Node1&#45;&gt;Node2</title>
<g id="a_edge1_Node000001_Node000002"><a xlink:title=" ">
<path fill="none" stroke="#63b8ff" d="M154.8,-110.3C133.15,-101.88 110.65,-90.13 93.5,-74 80.52,-61.8 72.3,-43.01 67.6,-29.03"/>
<polygon fill="#63b8ff" stroke="#63b8ff" points="70.83,-27.62 64.57,-19.07 64.13,-29.66 70.83,-27.62"/>
</a>
</g>
</g>
<!-- Node3 -->
<g id="Node000003" class="node">
<title>Node3</title>
<g id="a_Node000003"><a xlink:href="Logger_8h.html" target="_top" xlink:title=" ">
<polygon fill="white" stroke="#666666" points="228,-74 103,-74 103,-55 228,-55 228,-74"/>
<text text-anchor="middle" x="165.5" y="-62" font-family="Helvetica,sans-Serif" font-size="10.00">OpenCAX/Core/Logger.h</text>
</a>
</g>
</g>
<!-- Node1&#45;&gt;Node3 -->
<g id="edge2_Node000001_Node000003" class="edge">
<title>Node1&#45;&gt;Node3</title>
<g id="a_edge2_Node000001_Node000003"><a xlink:title=" ">
<path fill="none" stroke="#63b8ff" d="M208.56,-109.95C199.73,-100.83 189.35,-90.11 180.99,-81.49"/>
<polygon fill="#63b8ff" stroke="#63b8ff" points="183.46,-79.01 173.99,-74.26 178.43,-83.88 183.46,-79.01"/>
</a>
</g>
</g>
<!-- Node6 -->
<g id="Node000006" class="node">
<title>Node6</title>
<g id="a_Node000006"><a xlink:title=" ">
<polygon fill="#e0e0e0" stroke="#999999" points="334.5,-74 246.5,-74 246.5,-55 334.5,-55 334.5,-74"/>
<text text-anchor="middle" x="290.5" y="-62" font-family="Helvetica,sans-Serif" font-size="10.00">spdlog/fmt/fmt.h</text>
</a>
</g>
</g>
<!-- Node1&#45;&gt;Node6 -->
<g id="edge6_Node000001_Node000006" class="edge">
<title>Node1&#45;&gt;Node6</title>
<g id="a_edge6_Node000001_Node000006"><a xlink:title=" ">
<path fill="none" stroke="#63b8ff" d="M246.74,-109.95C255.72,-100.83 266.27,-90.11 274.76,-81.49"/>
<polygon fill="#63b8ff" stroke="#63b8ff" points="277.36,-83.84 281.88,-74.26 272.37,-78.93 277.36,-83.84"/>
</a>
</g>
</g>
<!-- Node7 -->
<g id="Node000007" class="node">
<title>Node7</title>
<g id="a_Node000007"><a xlink:title=" ">
<polygon fill="#e0e0e0" stroke="#999999" points="438,-74 353,-74 353,-55 438,-55 438,-74"/>
<text text-anchor="middle" x="395.5" y="-62" font-family="Helvetica,sans-Serif" font-size="10.00">spdlog/spdlog.h</text>
</a>
</g>
</g>
<!-- Node1&#45;&gt;Node7 -->
<g id="edge7_Node000001_Node000007" class="edge">
<title>Node1&#45;&gt;Node7</title>
<g id="a_edge7_Node000001_Node000007"><a xlink:title=" ">
<path fill="none" stroke="#63b8ff" d="M278.82,-109.95C306.34,-99.46 339.42,-86.87 363.31,-77.76"/>
<polygon fill="#63b8ff" stroke="#63b8ff" points="364.85,-80.92 372.95,-74.09 362.36,-74.38 364.85,-80.92"/>
</a>
</g>
</g>
<!-- Node3&#45;&gt;Node2 -->
<g id="edge3_Node000003_Node000002" class="edge">
<title>Node3&#45;&gt;Node2</title>
<g id="a_edge3_Node000003_Node000002"><a xlink:title=" ">
<path fill="none" stroke="#63b8ff" d="M148.95,-54.98C132.61,-46.57 107.37,-33.59 88.37,-23.81"/>
<polygon fill="#63b8ff" stroke="#63b8ff" points="89.84,-20.63 79.35,-19.17 86.64,-26.86 89.84,-20.63"/>
</a>
</g>
</g>
<!-- Node4 -->
<g id="Node000004" class="node">
<title>Node4</title>
<g id="a_Node000004"><a xlink:title=" ">
<polygon fill="#e0e0e0" stroke="#999999" points="195.5,-19 143.5,-19 143.5,0 195.5,0 195.5,-19"/>
<text text-anchor="middle" x="169.5" y="-7" font-family="Helvetica,sans-Serif" font-size="10.00">memory</text>
</a>
</g>
</g>
<!-- Node3&#45;&gt;Node4 -->
<g id="edge4_Node000003_Node000004" class="edge">
<title>Node3&#45;&gt;Node4</title>
<g id="a_edge4_Node000003_Node000004"><a xlink:title=" ">
<path fill="none" stroke="#63b8ff" d="M166.16,-54.75C166.68,-47.8 167.44,-37.85 168.09,-29.13"/>
<polygon fill="#63b8ff" stroke="#63b8ff" points="171.59,-29.32 168.85,-19.09 164.61,-28.8 171.59,-29.32"/>
</a>
</g>
</g>
<!-- Node5 -->
<g id="Node000005" class="node">
<title>Node5</title>
<g id="a_Node000005"><a xlink:title=" ">
<polygon fill="#e0e0e0" stroke="#999999" points="255,-19 214,-19 214,0 255,0 255,-19"/>
<text text-anchor="middle" x="234.5" y="-7" font-family="Helvetica,sans-Serif" font-size="10.00">string</text>
</a>
</g>
</g>
<!-- Node3&#45;&gt;Node5 -->
<g id="edge5_Node000003_Node000005" class="edge">
<title>Node3&#45;&gt;Node5</title>
<g id="a_edge5_Node000003_Node000005"><a xlink:title=" ">
<path fill="none" stroke="#63b8ff" d="M176.59,-54.98C186.99,-47 202.76,-34.88 215.22,-25.31"/>
<polygon fill="#63b8ff" stroke="#63b8ff" points="217.41,-28.04 223.21,-19.17 213.15,-22.49 217.41,-28.04"/>
</a>
</g>
</g>
</g>
</svg>
